<svg xmlns:xlink="http://www.w3.org/1999/xlink" xmlns="http://www.w3.org/2000/svg" width="44" height="44" viewBox="0 0 44 44" fill="none"><rect x="0.5" y="0.5" width="43" height="43" rx="5.5" fill="#E8ECF3"></rect><rect x="0.5" y="0.5" width="43" height="43" rx="5.5" stroke="#F6F9FF" fill-opacity="0" fill="#6EC1E4"></rect><path d="M22.0013 8.6665C18.508 8.6665 15.668 11.5065 15.668 14.9998C15.668 18.4265 18.348 21.1998 21.8413 21.3198C21.948 21.3065 22.0546 21.3065 22.1346 21.3198C22.1613 21.3198 22.1746 21.3198 22.2013 21.3198C22.2146 21.3198 22.2146 21.3198 22.228 21.3198C25.6413 21.1998 28.3213 18.4265 28.3346 14.9998C28.3346 11.5065 25.4946 8.6665 22.0013 8.6665Z" fill="#257CE7"></path><path d="M28.7733 24.8668C25.0533 22.3868 18.9866 22.3868 15.2399 24.8668C13.5466 26.0002 12.6133 27.5335 12.6133 29.1735C12.6133 30.8135 13.5466 32.3335 15.2266 33.4535C17.0933 34.7068 19.5466 35.3335 21.9999 35.3335C24.4533 35.3335 26.9066 34.7068 28.7733 33.4535C30.4533 32.3202 31.3866 30.8002 31.3866 29.1468C31.3733 27.5068 30.4533 25.9868 28.7733 24.8668Z" fill="#257CE7"></path></svg>