<svg xmlns:xlink="http://www.w3.org/1999/xlink" xmlns="http://www.w3.org/2000/svg" width="44" height="44" viewBox="0 0 44 44" fill="none"><rect x="0.5" y="0.5" width="43" height="43" rx="5.5" fill="#E8ECF3"></rect><rect x="0.5" y="0.5" width="43" height="43" rx="5.5" stroke="#F6F9FF" fill-opacity="0" fill="#6EC1E4"></rect><path d="M28.4389 26.8535C29.3322 26.2669 30.5055 26.9069 30.5055 27.9735V29.6935C30.5055 31.3869 29.1855 33.2002 27.5989 33.7335L23.3455 35.1469C22.5989 35.4002 21.3855 35.4002 20.6522 35.1469L16.3989 33.7335C14.7989 33.2002 13.4922 31.3869 13.4922 29.6935V27.9602C13.4922 26.9069 14.6655 26.2669 15.5455 26.8402L18.2922 28.6269C19.3455 29.3335 20.6789 29.6802 22.0122 29.6802C23.3455 29.6802 24.6789 29.3335 25.7322 28.6269L28.4389 26.8535Z" fill="#257CE7"></path><path d="M32.6381 14.6136L24.6514 9.37357C23.2114 8.42691 20.8381 8.42691 19.3981 9.37357L11.3714 14.6136C8.79807 16.2802 8.79807 20.0536 11.3714 21.7336L13.5047 23.1202L19.3981 26.9602C20.8381 27.9069 23.2114 27.9069 24.6514 26.9602L30.5047 23.1202L32.3314 21.9202V26.0002C32.3314 26.5469 32.7847 27.0002 33.3314 27.0002C33.8781 27.0002 34.3314 26.5469 34.3314 26.0002V19.4402C34.8647 17.7202 34.3181 15.7202 32.6381 14.6136Z" fill="#257CE7"></path></svg>