<svg xmlns:xlink="http://www.w3.org/1999/xlink" xmlns="http://www.w3.org/2000/svg" width="44" height="44" viewBox="0 0 44 44" fill="none"><rect x="0.5" y="0.5" width="43" height="43" rx="5.5" fill="#E8ECF3"></rect><rect x="0.5" y="0.5" width="43" height="43" rx="5.5" stroke="#F6F9FF" fill-opacity="0" fill="#6EC1E4"></rect><path d="M35.3346 34.3331H34.0013V19.3065C34.0013 18.4798 33.628 17.7065 32.9746 17.1998L31.3346 15.9198L31.308 12.6531C31.308 11.9198 30.708 11.3331 29.9746 11.3331H25.428L23.6413 9.94646C22.6813 9.18646 21.3213 9.18646 20.3613 9.94646L11.028 17.1998C10.3746 17.7065 10.0013 18.4798 10.0013 19.2931L9.93464 34.3331H8.66797C8.1213 34.3331 7.66797 34.7865 7.66797 35.3331C7.66797 35.8798 8.1213 36.3331 8.66797 36.3331H35.3346C35.8813 36.3331 36.3346 35.8798 36.3346 35.3331C36.3346 34.7865 35.8813 34.3331 35.3346 34.3331ZM14.668 22.9998V20.9998C14.668 20.2665 15.268 19.6665 16.0013 19.6665H18.668C19.4013 19.6665 20.0013 20.2665 20.0013 20.9998V22.9998C20.0013 23.7331 19.4013 24.3331 18.668 24.3331H16.0013C15.268 24.3331 14.668 23.7331 14.668 22.9998ZM25.3346 34.3331H18.668V30.6665C18.668 29.5598 19.5613 28.6665 20.668 28.6665H23.3346C24.4413 28.6665 25.3346 29.5598 25.3346 30.6665V34.3331ZM29.3346 22.9998C29.3346 23.7331 28.7346 24.3331 28.0013 24.3331H25.3346C24.6013 24.3331 24.0013 23.7331 24.0013 22.9998V20.9998C24.0013 20.2665 24.6013 19.6665 25.3346 19.6665H28.0013C28.7346 19.6665 29.3346 20.2665 29.3346 20.9998V22.9998Z" fill="#257CE7"></path></svg>