<svg xmlns:xlink="http://www.w3.org/1999/xlink" xmlns="http://www.w3.org/2000/svg" width="44" height="44" viewBox="0 0 44 44" fill="none"><rect x="0.5" y="0.5" width="43" height="43" rx="5.5" fill="#E8ECF3"></rect><rect x="0.5" y="0.5" width="43" height="43" rx="5.5" stroke="#F6F9FF" fill-opacity="0" fill="#6EC1E4"></rect><path d="M33.9727 20.2667C33.6794 15.0667 29.826 10.7333 24.6794 9.85333C24.5994 8.82667 23.746 8 22.6927 8H21.3594C20.306 8 19.466 8.81333 19.3727 9.84C14.1994 10.6933 10.3194 15.04 10.026 20.2667C9.07938 20.4267 8.35938 21.24 8.35938 22.2267V23.56C8.35938 24.6667 9.25271 25.56 10.3594 25.56H11.6927C12.7994 25.56 13.6927 24.6667 13.6927 23.56V22.2267C13.6927 21.24 12.9727 20.4267 12.026 20.2667C12.306 16.1067 15.3594 12.6533 19.4394 11.8533C19.666 12.7067 20.4394 13.3333 21.3594 13.3333H22.6927C23.6127 13.3333 24.3727 12.7067 24.6127 11.8667C28.666 12.68 31.6927 16.1333 31.9727 20.2667C31.026 20.4267 30.306 21.24 30.306 22.2267V23.56C30.306 24.6667 31.1994 25.56 32.306 25.56H33.6394C34.746 25.56 35.6394 24.6667 35.6394 23.56V22.2267C35.6394 21.24 34.9194 20.4133 33.9727 20.2667Z" fill="#257CE7"></path><path d="M27.0284 28.0668L24.8417 30.0001H19.1751L16.9884 28.0668C15.7217 27.0268 15.7217 26.2268 16.6817 25.0001L20.5351 20.1201C20.8017 19.7868 21.1084 19.5601 21.4551 19.4401C21.8151 19.3201 22.2017 19.3201 22.5751 19.4401C22.9084 19.5601 23.2151 19.7868 23.4951 20.1201L27.3351 24.9868C28.3084 26.2134 28.2551 26.9734 27.0284 28.0668Z" fill="#257CE7"></path><path d="M23.7615 35.3333H20.3082C19.0815 35.3333 18.1615 34.3333 18.4015 33.2666L18.8149 31.4133C18.8949 31.04 19.2282 30.7866 19.6015 30.7866H24.4682C24.8415 30.7866 25.1615 31.04 25.2549 31.4133L25.6682 33.2666C25.9215 34.4 25.0682 35.3333 23.7615 35.3333Z" fill="#257CE7"></path></svg>