<svg xmlns:xlink="http://www.w3.org/1999/xlink" xmlns="http://www.w3.org/2000/svg" width="25" height="25" viewBox="0 0 25 25" fill="none"><path d="M20.6 9.71994C18.79 9.71994 18.05 8.43994 18.95 6.86994C19.47 5.95994 19.16 4.79994 18.25 4.27994L16.52 3.28994C15.73 2.81994 14.71 3.09994 14.24 3.88994L14.13 4.07994C13.23 5.64994 11.75 5.64994 10.84 4.07994L10.73 3.88994C10.28 3.09994 9.26 2.81994 8.47 3.28994L6.74 4.27994C5.83 4.79994 5.52 5.96994 6.04 6.87994C6.95 8.43994 6.21 9.71994 4.4 9.71994C3.36 9.71994 2.5 10.5699 2.5 11.6199V13.3799C2.5 14.4199 3.35 15.2799 4.4 15.2799C6.21 15.2799 6.95 16.5599 6.04 18.1299C5.52 19.0399 5.83 20.1999 6.74 20.7199L8.47 21.7099C9.26 22.1799 10.28 21.8999 10.75 21.1099L10.86 20.9199C11.76 19.3499 13.24 19.3499 14.15 20.9199L14.26 21.1099C14.73 21.8999 15.75 22.1799 16.54 21.7099L18.27 20.7199C19.18 20.1999 19.49 19.0299 18.97 18.1299C18.06 16.5599 18.8 15.2799 20.61 15.2799C21.65 15.2799 22.51 14.4299 22.51 13.3799V11.6199C22.5 10.5799 21.65 9.71994 20.6 9.71994ZM12.5 15.7499C10.71 15.7499 9.25 14.2899 9.25 12.4999C9.25 10.7099 10.71 9.24994 12.5 9.24994C14.29 9.24994 15.75 10.7099 15.75 12.4999C15.75 14.2899 14.29 15.7499 12.5 15.7499Z" fill="#FF9606"></path></svg>