<svg xmlns:xlink="http://www.w3.org/1999/xlink" xmlns="http://www.w3.org/2000/svg" width="40" height="40" viewBox="0 0 40 40" fill="none"><path opacity="0.4" d="M19.6507 23.6835L14.2007 29.1335C13.6007 28.6002 13.0173 28.0502 12.4507 27.4835C10.734 25.7502 9.18398 23.9335 7.80065 22.0335C6.43398 20.1335 5.33398 18.2335 4.53398 16.3502C3.73398 14.4502 3.33398 12.6335 3.33398 10.9002C3.33398 9.76683 3.53398 8.6835 3.93398 7.6835C4.33398 6.66683 4.96732 5.7335 5.85065 4.90016C6.91732 3.85016 8.08398 3.3335 9.31732 3.3335C9.78398 3.3335 10.2507 3.4335 10.6673 3.6335C11.1007 3.8335 11.484 4.1335 11.784 4.56683L15.6507 10.0168C15.9507 10.4335 16.1673 10.8168 16.3173 11.1835C16.4673 11.5335 16.5507 11.8835 16.5507 12.2002C16.5507 12.6002 16.434 13.0002 16.2007 13.3835C15.984 13.7668 15.6673 14.1668 15.2673 14.5668L14.0007 15.8835C13.8173 16.0668 13.734 16.2835 13.734 16.5502C13.734 16.6835 13.7507 16.8002 13.784 16.9335C13.834 17.0668 13.884 17.1668 13.9173 17.2668C14.2173 17.8168 14.734 18.5335 15.4673 19.4002C16.2173 20.2668 17.0173 21.1502 17.884 22.0335C18.484 22.6168 19.0673 23.1835 19.6507 23.6835Z" fill="#257CE7" style="transition: 0.4s ease-in-out;"></path><path d="M36.6167 30.5499C36.6167 31.0166 36.5333 31.4999 36.3667 31.9666C36.3167 32.0999 36.2667 32.2332 36.2 32.3666C35.9167 32.9666 35.55 33.5332 35.0667 34.0666C34.25 34.9666 33.35 35.6166 32.3333 36.0332C32.3167 36.0332 32.3 36.0499 32.2833 36.0499C31.3 36.4499 30.2333 36.6666 29.0833 36.6666C27.3833 36.6666 25.5667 36.2666 23.65 35.4499C21.7333 34.6332 19.8167 33.5332 17.9167 32.1499C17.2667 31.6666 16.6167 31.1832 16 30.6666L21.45 25.2166C21.9167 25.5666 22.3333 25.8332 22.6833 26.0166C22.7667 26.0499 22.8667 26.0999 22.9833 26.1499C23.1167 26.1999 23.25 26.2166 23.4 26.2166C23.6833 26.2166 23.9 26.1166 24.0833 25.9332L25.35 24.6832C25.7667 24.2666 26.1667 23.9499 26.55 23.7499C26.9333 23.5166 27.3167 23.3999 27.7333 23.3999C28.05 23.3999 28.3833 23.4666 28.75 23.6166C29.1167 23.7666 29.5 23.9832 29.9167 24.2666L35.4333 28.1832C35.8667 28.4832 36.1667 28.8332 36.35 29.2499C36.5167 29.6666 36.6167 30.0832 36.6167 30.5499Z" fill="#257CE7" style="transition: 0.4s ease-in-out;"></path></svg>