<svg xmlns:xlink="http://www.w3.org/1999/xlink" xmlns="http://www.w3.org/2000/svg" width="60" height="60" viewBox="0 0 60 60" fill="none"><path d="M43.9992 13.2752L29.8742 5.6752C28.3742 4.8752 26.5992 4.8752 25.0992 5.6752L10.9992 13.2752C9.97422 13.8502 9.32422 14.9502 9.32422 16.1502C9.32422 17.3752 9.94922 18.4752 10.9992 19.0252L25.1242 26.6252C25.8742 27.0252 26.6992 27.2252 27.4992 27.2252C28.2992 27.2252 29.1492 27.0252 29.8742 26.6252L43.9992 19.0252C45.0242 18.4752 45.6742 17.3752 45.6742 16.1502C45.6742 14.9502 45.0242 13.8502 43.9992 13.2752Z" fill="#FF9606"></path><path d="M22.8 29.275L9.675 22.725C8.65 22.2 7.5 22.275 6.525 22.85C5.575 23.45 5 24.475 5 25.6V38C5 40.15 6.2 42.075 8.125 43.05L21.25 49.6C21.7 49.825 22.2 49.95 22.7 49.95C23.275 49.95 23.875 49.775 24.4 49.475C25.35 48.875 25.925 47.85 25.925 46.725V34.325C25.9 32.175 24.7 30.25 22.8 29.275Z" fill="#FF9606"></path><path d="M50.0016 25.6V31.75C48.8016 31.4 47.5266 31.25 46.2516 31.25C42.8516 31.25 39.5266 32.425 36.9016 34.525C33.3016 37.35 31.2516 41.625 31.2516 46.25C31.2516 47.475 31.4016 48.7 31.7266 49.875C31.3516 49.825 30.9766 49.675 30.6266 49.45C29.6766 48.875 29.1016 47.85 29.1016 46.725V34.325C29.1016 32.175 30.3016 30.25 32.2016 29.275L45.3266 22.725C46.3516 22.2 47.5016 22.275 48.4766 22.85C49.4266 23.45 50.0016 24.475 50.0016 25.6Z" fill="#FF9606"></path><path d="M54.95 39.1748C52.9 36.6498 49.775 35.0498 46.25 35.0498C43.6 35.0498 41.15 35.9748 39.225 37.5248C36.625 39.5748 35 42.7498 35 46.2998C35 48.3998 35.6 50.3998 36.625 52.0998C37.3 53.2248 38.15 54.1998 39.15 54.9998H39.175C41.1 56.5998 43.575 57.5498 46.25 57.5498C49.1 57.5498 51.675 56.4998 53.65 54.7498C54.525 53.9998 55.275 53.0998 55.875 52.0998C56.9 50.3998 57.5 48.3998 57.5 46.2998C57.5 43.5998 56.55 41.0998 54.95 39.1748ZM51.9 44.8998L45.9 50.4498C45.55 50.7748 45.075 50.9498 44.625 50.9498C44.15 50.9498 43.675 50.7748 43.3 50.3998L40.525 47.6248C39.8 46.8998 39.8 45.6998 40.525 44.9748C41.25 44.2498 42.45 44.2498 43.175 44.9748L44.675 46.4748L49.35 42.1498C50.1 41.4498 51.3 41.4998 52 42.2498C52.725 43.0248 52.675 44.1998 51.9 44.8998Z" fill="#FF9606"></path></svg>