<svg xmlns:xlink="http://www.w3.org/1999/xlink" xmlns="http://www.w3.org/2000/svg" width="40" height="40" viewBox="0 0 40 40" fill="none"><path opacity="0.4" d="M20 8.83349V35.5502C20.2833 35.5502 20.5833 35.5001 20.8167 35.3668L20.8834 35.3335C24.0834 33.5835 29.6666 31.7502 33.2833 31.2669L33.7667 31.2001C35.3667 31.0001 36.6667 29.5002 36.6667 27.9002V7.7668C36.6667 5.78347 35.05 4.28349 33.0667 4.45015C29.5667 4.73349 24.2667 6.5002 21.3 8.3502L20.8834 8.60014C20.6334 8.75014 20.3167 8.83349 20 8.83349Z" fill="#257CE7"></path><path d="M3.33398 7.78304V27.8997C3.33398 29.4997 4.63397 30.9997 6.23397 31.1997L6.784 31.2664C10.4173 31.7498 16.0174 33.5997 19.2174 35.3664C19.434 35.4997 19.7007 35.5498 20.0007 35.5498V8.83305C19.684 8.83305 19.3673 8.74969 19.1173 8.59969L18.834 8.41638C15.8673 6.54972 10.5506 4.76639 7.05062 4.46639H6.95062C4.96729 4.29972 3.33398 5.78304 3.33398 7.78304Z" fill="#257CE7"></path><path d="M31.6667 4.6333V11.7833C31.6667 12.4499 30.9333 12.8499 30.3666 12.4832L28.3333 11.1332L26.3 12.4832C25.75 12.8499 25 12.4499 25 11.7833V6.53322C27.1833 5.66656 29.6167 4.96663 31.6667 4.6333Z" fill="#257CE7"></path></svg>