<svg xmlns:xlink="http://www.w3.org/1999/xlink" xmlns="http://www.w3.org/2000/svg" width="40" height="40" viewBox="0 0 40 40" fill="none"><path opacity="0.4" d="M33.5 11.5668C33.5 12.4668 33.0167 13.2834 32.25 13.7001L29.35 15.2668L26.8834 16.5835L21.7667 19.3501C21.2167 19.6501 20.6167 19.8001 20 19.8001C19.3833 19.8001 18.7833 19.6501 18.2333 19.3501L7.75 13.7001C6.98333 13.2834 6.5 12.4668 6.5 11.5668C6.5 10.6668 6.98333 9.85009 7.75 9.43342L11.0333 7.66676L13.65 6.25013L18.2333 3.7835C19.3333 3.1835 20.6667 3.1835 21.7667 3.7835L32.25 9.43342C33.0167 9.85009 33.5 10.6668 33.5 11.5668Z" fill="#257CE7"></path><path opacity="0.4" d="M16.4999 21.3165L6.74985 16.4331C5.99985 16.0498 5.13319 16.0998 4.41652 16.5331C3.69986 16.9665 3.2832 17.7332 3.2832 18.5665V27.7831C3.2832 29.3831 4.16651 30.8165 5.59984 31.5331L15.3499 36.3999C15.6832 36.5665 16.0499 36.6498 16.4165 36.6498C16.8499 36.6498 17.2832 36.5332 17.6665 36.2832C18.3832 35.8499 18.7999 35.0831 18.7999 34.2498V25.0332C18.8165 23.4665 17.9332 22.0331 16.4999 21.3165Z" fill="#257CE7"></path><path opacity="0.4" d="M36.7169 18.5834V27.8C36.7169 29.3834 35.8336 30.8167 34.4003 31.5334L24.6503 36.4167C24.317 36.5833 23.9503 36.6667 23.5836 36.6667C23.1503 36.6667 22.717 36.5501 22.317 36.3001C21.617 35.8668 21.1836 35.1001 21.1836 34.2667V25.0667C21.1836 23.4667 22.067 22.0334 23.5003 21.3167L27.0836 19.5333L29.5836 18.2833L33.2503 16.45C34.0003 16.0667 34.867 16.1 35.5836 16.55C36.2836 16.9834 36.7169 17.7501 36.7169 18.5834Z" fill="#257CE7"></path><path d="M29.3499 15.2666L26.8832 16.5834L11.0332 7.66663L13.6499 6.25L28.9499 14.8833C29.1165 14.9833 29.2499 15.1166 29.3499 15.2666Z" fill="#257CE7"></path><path d="M29.584 18.2832V22.0666C29.584 22.7499 29.0173 23.3166 28.334 23.3166C27.6507 23.3166 27.084 22.7499 27.084 22.0666V19.5332L29.584 18.2832Z" fill="#257CE7"></path></svg>