<svg xmlns:xlink="http://www.w3.org/1999/xlink" xmlns="http://www.w3.org/2000/svg" width="44" height="44" viewBox="0 0 44 44" fill="none"><rect x="0.5" y="0.5" width="43" height="43" rx="5.5" fill="#E8ECF3"></rect><rect x="0.5" y="0.5" width="43" height="43" rx="5.5" stroke="#F6F9FF" fill-opacity="0" fill="#6EC1E4"></rect><path d="M35.8129 17.0265L35.4262 13.3332C34.8662 9.3065 33.0395 7.6665 29.1329 7.6665H25.9862H24.0129H19.9595H17.9862H14.7862C10.8662 7.6665 9.05287 9.3065 8.47953 13.3732L8.11953 17.0398C7.9862 18.4665 8.37287 19.8532 9.21287 20.9332C10.2262 22.2532 11.7862 22.9998 13.5195 22.9998C15.1995 22.9998 16.8129 22.1598 17.8262 20.8132C18.7329 22.1598 20.2795 22.9998 21.9995 22.9998C23.7195 22.9998 25.2262 22.1998 26.1462 20.8665C27.1729 22.1865 28.7595 22.9998 30.4129 22.9998C32.1862 22.9998 33.7862 22.2132 34.7862 20.8265C35.5862 19.7598 35.9462 18.4132 35.8129 17.0265Z" fill="#257CE7"></path><path d="M21.1335 28.2135C19.4402 28.3868 18.1602 29.8268 18.1602 31.5335V35.1868C18.1602 35.5468 18.4535 35.8402 18.8135 35.8402H25.1735C25.5335 35.8402 25.8268 35.5468 25.8268 35.1868V32.0002C25.8402 29.2135 24.2002 27.8935 21.1335 28.2135Z" fill="#257CE7"></path><path d="M34.4945 25.2001V29.1734C34.4945 32.8534 31.5078 35.8401 27.8278 35.8401C27.4678 35.8401 27.1745 35.5468 27.1745 35.1868V32.0001C27.1745 30.2934 26.6545 28.9601 25.6411 28.0534C24.7478 27.2401 23.5345 26.8401 22.0278 26.8401C21.6945 26.8401 21.3611 26.8534 21.0011 26.8934C18.6278 27.1334 16.8278 29.1334 16.8278 31.5334V35.1868C16.8278 35.5468 16.5345 35.8401 16.1745 35.8401C12.4945 35.8401 9.50781 32.8534 9.50781 29.1734V25.2268C9.50781 24.2934 10.4278 23.6668 11.2945 23.9734C11.6545 24.0934 12.0145 24.1868 12.3878 24.2401C12.5478 24.2668 12.7211 24.2934 12.8811 24.2934C13.0945 24.3201 13.3078 24.3334 13.5211 24.3334C15.0678 24.3334 16.5878 23.7601 17.7878 22.7734C18.9345 23.7601 20.4278 24.3334 22.0011 24.3334C23.5878 24.3334 25.0545 23.7868 26.2011 22.8001C27.4011 23.7734 28.8945 24.3334 30.4145 24.3334C30.6545 24.3334 30.8945 24.3201 31.1211 24.2934C31.2811 24.2801 31.4278 24.2668 31.5745 24.2401C31.9878 24.1868 32.3611 24.0668 32.7345 23.9468C33.6011 23.6534 34.4945 24.2934 34.4945 25.2001Z" fill="#257CE7"></path></svg>