<svg xmlns:xlink="http://www.w3.org/1999/xlink" xmlns="http://www.w3.org/2000/svg" width="60" height="60" viewBox="0 0 60 60" fill="none"><path d="M38.1499 55C37.9999 55 37.8249 54.975 37.6749 54.925C32.6499 53.5 27.3749 53.5 22.3499 54.925C21.4249 55.175 20.4499 54.65 20.1999 53.725C19.9249 52.8 20.4749 51.825 21.3999 51.575C27.0499 49.975 32.9999 49.975 38.6499 51.575C39.5749 51.85 40.1249 52.8 39.8499 53.725C39.5999 54.5 38.8999 55 38.1499 55Z" fill="#FF9606"></path><path d="M48.0258 15.8998C45.4258 10.6498 40.4008 6.77478 34.5758 5.49978C28.4758 4.14978 22.2258 5.59978 17.4508 9.44978C12.6508 13.2748 9.92578 18.9998 9.92578 25.1248C9.92578 31.5998 13.8008 38.3748 19.6508 42.2998V44.3748C19.6258 45.0748 19.6008 46.1498 20.4508 47.0248C21.3258 47.9248 22.6258 48.0248 23.6508 48.0248H36.4758C37.8258 48.0248 38.8508 47.6498 39.5508 46.9498C40.5008 45.9748 40.4758 44.7248 40.4508 44.0498V42.2998C48.2008 37.0748 53.0758 26.0498 48.0258 15.8998ZM34.3008 29.0498L31.6258 33.6998C31.2758 34.2998 30.6508 34.6498 30.0008 34.6498C29.6758 34.6498 29.3508 34.5748 29.0758 34.3998C28.1758 33.8748 27.8758 32.7248 28.3758 31.8498L30.5008 28.1498H28.4008C27.1508 28.1498 26.1258 27.5998 25.5758 26.6748C25.0258 25.7248 25.0758 24.5748 25.7008 23.4748L28.3758 18.8248C28.9008 17.9248 30.0508 17.6248 30.9258 18.1248C31.8258 18.6498 32.1258 19.7998 31.6258 20.6748L29.5008 24.3748H31.6008C32.8508 24.3748 33.8758 24.9248 34.4258 25.8498C34.9758 26.7998 34.9258 27.9748 34.3008 29.0498Z" fill="#FF9606"></path></svg>