<svg xmlns:xlink="http://www.w3.org/1999/xlink" xmlns="http://www.w3.org/2000/svg" width="24" height="25" viewBox="0 0 24 25" fill="none"><path d="M20.0984 7.44C20.0984 7.98 19.8084 8.47 19.3484 8.72L17.6084 9.66L16.1284 10.45L13.0584 12.11C12.7284 12.29 12.3684 12.38 11.9984 12.38C11.6284 12.38 11.2684 12.29 10.9384 12.11L4.64844 8.72C4.18844 8.47 3.89844 7.98 3.89844 7.44C3.89844 6.9 4.18844 6.41 4.64844 6.16L6.61844 5.1L8.18844 4.25L10.9384 2.77C11.5984 2.41 12.3984 2.41 13.0584 2.77L19.3484 6.16C19.8084 6.41 20.0984 6.9 20.0984 7.44Z" fill="#F6F9FF"></path><path d="M9.89875 13.2899L4.04875 10.3699C3.59875 10.1399 3.07875 10.1699 2.64875 10.4299C2.21875 10.6899 1.96875 11.1499 1.96875 11.6499V17.1799C1.96875 18.1399 2.49875 18.9999 3.35875 19.4299L9.20875 22.3499C9.40875 22.4499 9.62875 22.4999 9.84875 22.4999C10.1088 22.4999 10.3688 22.4299 10.5988 22.2799C11.0288 22.0199 11.2787 21.5599 11.2787 21.0599V15.5299C11.2887 14.5799 10.7587 13.7199 9.89875 13.2899Z" fill="#F6F9FF"></path><path d="M22.0309 11.6499V17.1799C22.0309 18.1299 21.5009 18.9899 20.6409 19.4199L14.7909 22.3499C14.5909 22.4499 14.3709 22.4999 14.1509 22.4999C13.8909 22.4999 13.6309 22.4299 13.3909 22.2799C12.9709 22.0199 12.7109 21.5599 12.7109 21.0599V15.5399C12.7109 14.5799 13.2409 13.7199 14.1009 13.2899L16.2509 12.2199L17.7509 11.4699L19.9509 10.3699C20.4009 10.1399 20.9209 10.1599 21.3509 10.4299C21.7709 10.6899 22.0309 11.1499 22.0309 11.6499Z" fill="#F6F9FF"></path><path d="M17.6111 9.66L16.1311 10.45L6.62109 5.1L8.19109 4.25L17.3711 9.43C17.4711 9.49 17.5511 9.57 17.6111 9.66Z" fill="#F6F9FF"></path><path d="M17.75 11.47V13.74C17.75 14.15 17.41 14.49 17 14.49C16.59 14.49 16.25 14.15 16.25 13.74V12.22L17.75 11.47Z" fill="#F6F9FF"></path></svg>