<svg xmlns:xlink="http://www.w3.org/1999/xlink" xmlns="http://www.w3.org/2000/svg" width="40" height="40" viewBox="0 0 40 40" fill="none"><path opacity="0.4" d="M30 34.1668H28.3333V33.7501C28.3333 31.9168 26.8333 30.4168 25 30.4168H21.25V26.6001C20.8333 26.6501 20.4167 26.6668 20 26.6668C19.5833 26.6668 19.1667 26.6501 18.75 26.6001V30.4168H15C13.1667 30.4168 11.6667 31.9168 11.6667 33.7501V34.1668H10C9.31667 34.1668 8.75 34.7334 8.75 35.4168C8.75 36.1001 9.31667 36.6668 10 36.6668H30C30.6833 36.6668 31.25 36.1001 31.25 35.4168C31.25 34.7334 30.6833 34.1668 30 34.1668Z" fill="#257CE7"></path><path opacity="0.4" d="M9.20078 19.4002C8.10078 18.9835 7.13411 18.3002 6.36745 17.5335C4.81745 15.8168 3.80078 13.7668 3.80078 11.3668C3.80078 8.96683 5.68411 7.0835 8.08411 7.0835H9.01745C8.58411 7.96683 8.33411 8.95016 8.33411 10.0002V15.0002C8.33411 16.5668 8.63411 18.0502 9.20078 19.4002Z" fill="#257CE7"></path><path opacity="0.4" d="M36.2008 11.3668C36.2008 13.7668 35.1841 15.8168 33.6341 17.5335C32.8674 18.3002 31.9008 18.9835 30.8008 19.4002C31.3674 18.0502 31.6674 16.5668 31.6674 15.0002V10.0002C31.6674 8.95016 31.4174 7.96683 30.9841 7.0835H31.9174C34.3174 7.0835 36.2008 8.96683 36.2008 11.3668Z" fill="#257CE7"></path><path d="M25.0007 3.3335H15.0007C11.3173 3.3335 8.33398 6.31683 8.33398 10.0002V15.0002C8.33398 21.4502 13.5507 26.6668 20.0007 26.6668C26.4507 26.6668 31.6673 21.4502 31.6673 15.0002V10.0002C31.6673 6.31683 28.684 3.3335 25.0007 3.3335ZM24.734 14.0835L23.7007 15.3502C23.534 15.5335 23.4173 15.9002 23.434 16.1502L23.534 17.7835C23.6007 18.7835 22.884 19.3002 21.9507 18.9335L20.434 18.3335C20.2007 18.2502 19.8007 18.2502 19.5673 18.3335L18.0507 18.9335C17.1173 19.3002 16.4007 18.7835 16.4673 17.7835L16.5673 16.1502C16.584 15.9002 16.4673 15.5335 16.3007 15.3502L15.2673 14.0835C14.6173 13.3168 14.9007 12.4668 15.8673 12.2168L17.4507 11.8168C17.7007 11.7502 18.0007 11.5168 18.134 11.3002L19.0173 9.9335C19.5673 9.0835 20.434 9.0835 20.984 9.9335L21.8673 11.3002C22.0007 11.5168 22.3007 11.7502 22.5507 11.8168L24.134 12.2168C25.1007 12.4668 25.384 13.3168 24.734 14.0835Z" fill="#257CE7"></path><path opacity="0.4" d="M24.7336 14.0834L23.7002 15.3501C23.5336 15.5334 23.4169 15.9001 23.4336 16.1501L23.5336 17.7834C23.6002 18.7834 22.8836 19.3001 21.9502 18.9334L20.4336 18.3334C20.2002 18.2501 19.8002 18.2501 19.5669 18.3334L18.0502 18.9334C17.1169 19.3001 16.4002 18.7834 16.4669 17.7834L16.5669 16.1501C16.5836 15.9001 16.4669 15.5334 16.3002 15.3501L15.2669 14.0834C14.6169 13.3167 14.9002 12.4667 15.8669 12.2167L17.4502 11.8167C17.7002 11.7501 18.0002 11.5167 18.1336 11.3001L19.0169 9.9334C19.5669 9.0834 20.4336 9.0834 20.9836 9.9334L21.8669 11.3001C22.0002 11.5167 22.3002 11.7501 22.5502 11.8167L24.1336 12.2167C25.1002 12.4667 25.3836 13.3167 24.7336 14.0834Z" fill="#257CE7"></path></svg>