<svg xmlns:xlink="http://www.w3.org/1999/xlink" xmlns="http://www.w3.org/2000/svg" width="32" height="33" viewBox="0 0 32 33" fill="none"><g clip-path="url(#clip0_667_22172)" fill="none"><path d="M16.904 27.1093C17.2704 27.1945 17.3039 27.6743 16.9471 27.7932L14.8405 28.4866C9.54712 30.1932 6.76046 28.7666 5.04046 23.4732L3.33379 18.2066C1.62712 12.9132 3.04045 10.1132 8.33379 8.40656L9.37112 8.06303C9.77398 7.92961 10.1617 8.332 10.0393 8.73834C9.92722 9.1103 9.82211 9.50638 9.72045 9.92656L8.41379 15.5132C6.94712 21.7932 9.09379 25.2599 15.3738 26.7532L16.904 27.1093Z" fill="#FF9606"></path><path d="M22.8929 4.78017L20.6663 4.26017C16.2129 3.20684 13.5596 4.07351 11.9996 7.30017C11.5996 8.11351 11.2796 9.10017 11.0129 10.2335L9.70626 15.8202C8.39959 21.3935 10.1196 24.1402 15.6796 25.4602L17.9196 25.9935C18.6929 26.1802 19.4129 26.3002 20.0796 26.3535C24.2396 26.7535 26.4529 24.8068 27.5729 19.9935L28.8796 14.4202C30.1863 8.84684 28.4796 6.08684 22.8929 4.78017ZM20.3863 18.2735C20.2663 18.7268 19.8663 19.0202 19.4129 19.0202C19.3329 19.0202 19.2529 19.0068 19.1596 18.9935L15.2796 18.0068C14.7463 17.8735 14.4263 17.3268 14.5596 16.7935C14.6929 16.2602 15.2396 15.9402 15.7729 16.0735L19.6529 17.0602C20.1996 17.1935 20.5196 17.7402 20.3863 18.2735ZM24.2929 13.7668C24.1729 14.2202 23.7729 14.5135 23.3196 14.5135C23.2396 14.5135 23.1596 14.5002 23.0663 14.4868L16.5996 12.8468C16.0663 12.7135 15.7463 12.1668 15.8796 11.6335C16.0129 11.1002 16.5596 10.7802 17.0929 10.9135L23.5596 12.5535C24.1063 12.6735 24.4263 13.2202 24.2929 13.7668Z" fill="#FF9606"></path></g><defs><clipPath id="clip0_667_22172"><rect width="32" height="32" fill="white" transform="translate(0 0.5)"></rect></clipPath></defs></svg>